<mxfile host="app.diagrams.net" modified="2023-05-10T14:06:46.216Z" agent="Mozilla/5.0 (Windows NT 10.0; Win64; x64) AppleWebKit/537.36 (KHTML, like Gecko) Chrome/113.0.0.0 Safari/537.36 Edg/113.0.1774.35" etag="SXOfSCznaomjhxpeYV8X" version="21.2.9" type="device">
  <diagram id="R2lEEEUBdFMjLlhIrx00" name="Page-1">
    <mxGraphModel dx="3260" dy="2160" grid="1" gridSize="10" guides="1" tooltips="1" connect="1" arrows="1" fold="1" page="0" pageScale="1" pageWidth="850" pageHeight="1100" math="0" shadow="0" extFonts="Permanent Marker^https://fonts.googleapis.com/css?family=Permanent+Marker">
      <root>
        <mxCell id="0" />
        <mxCell id="1" parent="0" />
        <mxCell id="_7YUsY37ZqRuh6ZpaFpD-2" value="STUDENT" style="rounded=0;whiteSpace=wrap;html=1;" vertex="1" parent="1">
          <mxGeometry x="-530" y="-130" width="120" height="60" as="geometry" />
        </mxCell>
        <mxCell id="_7YUsY37ZqRuh6ZpaFpD-3" value="EQUIPMENT" style="rounded=0;whiteSpace=wrap;html=1;" vertex="1" parent="1">
          <mxGeometry x="150" y="-110" width="120" height="60" as="geometry" />
        </mxCell>
        <mxCell id="_7YUsY37ZqRuh6ZpaFpD-4" value="COURSE" style="rounded=0;whiteSpace=wrap;html=1;" vertex="1" parent="1">
          <mxGeometry x="-510" y="165" width="120" height="60" as="geometry" />
        </mxCell>
        <mxCell id="_7YUsY37ZqRuh6ZpaFpD-5" value="AREA" style="rounded=0;whiteSpace=wrap;html=1;" vertex="1" parent="1">
          <mxGeometry x="-510" y="470" width="120" height="60" as="geometry" />
        </mxCell>
        <mxCell id="_7YUsY37ZqRuh6ZpaFpD-7" value="EMPLOYEE" style="rounded=0;whiteSpace=wrap;html=1;" vertex="1" parent="1">
          <mxGeometry x="130" y="230" width="120" height="60" as="geometry" />
        </mxCell>
        <mxCell id="_7YUsY37ZqRuh6ZpaFpD-8" value="ACCOMIDATION" style="rounded=0;whiteSpace=wrap;html=1;" vertex="1" parent="1">
          <mxGeometry x="-60" y="-420" width="120" height="60" as="geometry" />
        </mxCell>
        <mxCell id="_7YUsY37ZqRuh6ZpaFpD-10" value="Name" style="ellipse;whiteSpace=wrap;html=1;" vertex="1" parent="1">
          <mxGeometry x="-700" y="-225" width="100" height="40" as="geometry" />
        </mxCell>
        <mxCell id="_7YUsY37ZqRuh6ZpaFpD-13" value="Address" style="ellipse;shape=doubleEllipse;margin=3;whiteSpace=wrap;html=1;align=center;" vertex="1" parent="1">
          <mxGeometry x="-360" y="-210" width="100" height="40" as="geometry" />
        </mxCell>
        <mxCell id="_7YUsY37ZqRuh6ZpaFpD-14" value="Student_id" style="ellipse;whiteSpace=wrap;html=1;align=center;fontStyle=4;" vertex="1" parent="1">
          <mxGeometry x="-610" y="-195" width="100" height="40" as="geometry" />
        </mxCell>
        <mxCell id="_7YUsY37ZqRuh6ZpaFpD-15" value="Street" style="ellipse;whiteSpace=wrap;html=1;" vertex="1" parent="1">
          <mxGeometry x="-430" y="-290" width="100" height="40" as="geometry" />
        </mxCell>
        <mxCell id="_7YUsY37ZqRuh6ZpaFpD-16" value="House_num" style="ellipse;whiteSpace=wrap;html=1;" vertex="1" parent="1">
          <mxGeometry x="-320" y="-290" width="100" height="40" as="geometry" />
        </mxCell>
        <mxCell id="_7YUsY37ZqRuh6ZpaFpD-17" value="Post_code" style="ellipse;whiteSpace=wrap;html=1;" vertex="1" parent="1">
          <mxGeometry x="-210" y="-280" width="100" height="40" as="geometry" />
        </mxCell>
        <mxCell id="_7YUsY37ZqRuh6ZpaFpD-18" value="" style="endArrow=none;html=1;rounded=0;entryX=0.5;entryY=0;entryDx=0;entryDy=0;exitX=0.5;exitY=1;exitDx=0;exitDy=0;" edge="1" parent="1" source="_7YUsY37ZqRuh6ZpaFpD-16" target="_7YUsY37ZqRuh6ZpaFpD-13">
          <mxGeometry relative="1" as="geometry">
            <mxPoint x="-270" y="-170" as="sourcePoint" />
            <mxPoint x="-110" y="-170" as="targetPoint" />
          </mxGeometry>
        </mxCell>
        <mxCell id="_7YUsY37ZqRuh6ZpaFpD-19" value="" style="endArrow=none;html=1;rounded=0;exitX=0.5;exitY=0;exitDx=0;exitDy=0;entryX=0.5;entryY=1;entryDx=0;entryDy=0;" edge="1" parent="1" source="_7YUsY37ZqRuh6ZpaFpD-13" target="_7YUsY37ZqRuh6ZpaFpD-15">
          <mxGeometry relative="1" as="geometry">
            <mxPoint x="-270" y="-170" as="sourcePoint" />
            <mxPoint x="-110" y="-170" as="targetPoint" />
          </mxGeometry>
        </mxCell>
        <mxCell id="_7YUsY37ZqRuh6ZpaFpD-20" value="" style="endArrow=none;html=1;rounded=0;exitX=0.5;exitY=0;exitDx=0;exitDy=0;entryX=0.5;entryY=1;entryDx=0;entryDy=0;" edge="1" parent="1" source="_7YUsY37ZqRuh6ZpaFpD-13" target="_7YUsY37ZqRuh6ZpaFpD-17">
          <mxGeometry relative="1" as="geometry">
            <mxPoint x="-270" y="-170" as="sourcePoint" />
            <mxPoint x="-110" y="-170" as="targetPoint" />
          </mxGeometry>
        </mxCell>
        <mxCell id="_7YUsY37ZqRuh6ZpaFpD-21" value="Birthdate" style="ellipse;whiteSpace=wrap;html=1;" vertex="1" parent="1">
          <mxGeometry x="-600" y="-10" width="100" height="40" as="geometry" />
        </mxCell>
        <mxCell id="_7YUsY37ZqRuh6ZpaFpD-22" value="Phonenumber" style="ellipse;whiteSpace=wrap;html=1;" vertex="1" parent="1">
          <mxGeometry x="-780" y="-160" width="100" height="40" as="geometry" />
        </mxCell>
        <mxCell id="_7YUsY37ZqRuh6ZpaFpD-24" value="Sex" style="ellipse;whiteSpace=wrap;html=1;" vertex="1" parent="1">
          <mxGeometry x="-570" y="-280" width="100" height="40" as="geometry" />
        </mxCell>
        <mxCell id="_7YUsY37ZqRuh6ZpaFpD-25" value="Experience_level" style="ellipse;whiteSpace=wrap;html=1;" vertex="1" parent="1">
          <mxGeometry x="-500" y="-225" width="100" height="40" as="geometry" />
        </mxCell>
        <mxCell id="_7YUsY37ZqRuh6ZpaFpD-27" value="Experience_level" style="ellipse;whiteSpace=wrap;html=1;" vertex="1" parent="1">
          <mxGeometry x="-670" y="-145" width="100" height="40" as="geometry" />
        </mxCell>
        <mxCell id="_7YUsY37ZqRuh6ZpaFpD-29" value="Own_equipment" style="ellipse;whiteSpace=wrap;html=1;" vertex="1" parent="1">
          <mxGeometry x="-730" y="-10" width="100" height="40" as="geometry" />
        </mxCell>
        <mxCell id="_7YUsY37ZqRuh6ZpaFpD-30" value="Course_type" style="ellipse;whiteSpace=wrap;html=1;" vertex="1" parent="1">
          <mxGeometry x="-670" y="-70" width="100" height="40" as="geometry" />
        </mxCell>
        <mxCell id="_7YUsY37ZqRuh6ZpaFpD-31" value="Own_equipment" style="ellipse;whiteSpace=wrap;html=1;" vertex="1" parent="1">
          <mxGeometry x="-780" y="-90" width="100" height="40" as="geometry" />
        </mxCell>
        <mxCell id="_7YUsY37ZqRuh6ZpaFpD-32" value="Adult" style="ellipse;whiteSpace=wrap;html=1;align=center;dashed=1;" vertex="1" parent="1">
          <mxGeometry x="-690" y="-300" width="100" height="40" as="geometry" />
        </mxCell>
        <mxCell id="_7YUsY37ZqRuh6ZpaFpD-35" value="Brand" style="ellipse;whiteSpace=wrap;html=1;align=center;" vertex="1" parent="1">
          <mxGeometry x="110" y="-185" width="100" height="40" as="geometry" />
        </mxCell>
        <mxCell id="_7YUsY37ZqRuh6ZpaFpD-36" value="Equipment_id" style="ellipse;whiteSpace=wrap;html=1;align=center;fontStyle=4;" vertex="1" parent="1">
          <mxGeometry x="20" y="-150" width="100" height="40" as="geometry" />
        </mxCell>
        <mxCell id="_7YUsY37ZqRuh6ZpaFpD-38" value="Width" style="ellipse;whiteSpace=wrap;html=1;align=center;" vertex="1" parent="1">
          <mxGeometry x="290" y="-170" width="100" height="40" as="geometry" />
        </mxCell>
        <mxCell id="_7YUsY37ZqRuh6ZpaFpD-41" value="Length" style="ellipse;whiteSpace=wrap;html=1;align=center;" vertex="1" parent="1">
          <mxGeometry x="340" y="-120" width="100" height="40" as="geometry" />
        </mxCell>
        <mxCell id="_7YUsY37ZqRuh6ZpaFpD-44" value="Country" style="ellipse;whiteSpace=wrap;html=1;align=center;" vertex="1" parent="1">
          <mxGeometry x="-590" y="320" width="100" height="40" as="geometry" />
        </mxCell>
        <mxCell id="_7YUsY37ZqRuh6ZpaFpD-45" value="Area_id" style="ellipse;whiteSpace=wrap;html=1;align=center;fontStyle=4;" vertex="1" parent="1">
          <mxGeometry x="-640" y="410" width="100" height="40" as="geometry" />
        </mxCell>
        <mxCell id="_7YUsY37ZqRuh6ZpaFpD-46" value="Name" style="ellipse;whiteSpace=wrap;html=1;align=center;" vertex="1" parent="1">
          <mxGeometry x="-700" y="600" width="100" height="40" as="geometry" />
        </mxCell>
        <mxCell id="_7YUsY37ZqRuh6ZpaFpD-47" value="Difficulty_level" style="ellipse;whiteSpace=wrap;html=1;align=center;" vertex="1" parent="1">
          <mxGeometry x="-780" y="510" width="100" height="40" as="geometry" />
        </mxCell>
        <mxCell id="_7YUsY37ZqRuh6ZpaFpD-48" value="Opening_time" style="ellipse;whiteSpace=wrap;html=1;align=center;" vertex="1" parent="1">
          <mxGeometry x="-660" y="540" width="100" height="40" as="geometry" />
        </mxCell>
        <mxCell id="_7YUsY37ZqRuh6ZpaFpD-49" value="Closing_time" style="ellipse;whiteSpace=wrap;html=1;align=center;" vertex="1" parent="1">
          <mxGeometry x="-590" y="610" width="100" height="40" as="geometry" />
        </mxCell>
        <mxCell id="_7YUsY37ZqRuh6ZpaFpD-50" value="Magic_carpet" style="ellipse;whiteSpace=wrap;html=1;align=center;" vertex="1" parent="1">
          <mxGeometry x="-690" y="470" width="100" height="40" as="geometry" />
        </mxCell>
        <mxCell id="_7YUsY37ZqRuh6ZpaFpD-51" value="Location" style="ellipse;shape=doubleEllipse;margin=3;whiteSpace=wrap;html=1;align=center;" vertex="1" parent="1">
          <mxGeometry x="-530" y="400" width="100" height="40" as="geometry" />
        </mxCell>
        <mxCell id="_7YUsY37ZqRuh6ZpaFpD-52" value="City" style="ellipse;whiteSpace=wrap;html=1;align=center;" vertex="1" parent="1">
          <mxGeometry x="-470" y="320" width="100" height="40" as="geometry" />
        </mxCell>
        <mxCell id="_7YUsY37ZqRuh6ZpaFpD-57" value="" style="endArrow=none;html=1;rounded=0;exitX=0.5;exitY=0;exitDx=0;exitDy=0;entryX=0.5;entryY=1;entryDx=0;entryDy=0;" edge="1" parent="1" source="_7YUsY37ZqRuh6ZpaFpD-51" target="_7YUsY37ZqRuh6ZpaFpD-44">
          <mxGeometry relative="1" as="geometry">
            <mxPoint x="-350" y="280" as="sourcePoint" />
            <mxPoint x="-190" y="280" as="targetPoint" />
          </mxGeometry>
        </mxCell>
        <mxCell id="_7YUsY37ZqRuh6ZpaFpD-58" value="" style="endArrow=none;html=1;rounded=0;exitX=0.5;exitY=0;exitDx=0;exitDy=0;entryX=0.5;entryY=1;entryDx=0;entryDy=0;" edge="1" parent="1" source="_7YUsY37ZqRuh6ZpaFpD-51" target="_7YUsY37ZqRuh6ZpaFpD-52">
          <mxGeometry relative="1" as="geometry">
            <mxPoint x="-350" y="280" as="sourcePoint" />
            <mxPoint x="-190" y="280" as="targetPoint" />
          </mxGeometry>
        </mxCell>
        <mxCell id="_7YUsY37ZqRuh6ZpaFpD-62" value="Start_location" style="ellipse;whiteSpace=wrap;html=1;align=center;" vertex="1" parent="1">
          <mxGeometry x="-210" y="840" width="100" height="40" as="geometry" />
        </mxCell>
        <mxCell id="_7YUsY37ZqRuh6ZpaFpD-63" value="End_Location" style="ellipse;whiteSpace=wrap;html=1;align=center;" vertex="1" parent="1">
          <mxGeometry x="-130" y="800" width="100" height="40" as="geometry" />
        </mxCell>
        <mxCell id="_7YUsY37ZqRuh6ZpaFpD-64" value="Capacity" style="ellipse;whiteSpace=wrap;html=1;align=center;" vertex="1" parent="1">
          <mxGeometry x="-90" y="750" width="100" height="40" as="geometry" />
        </mxCell>
        <mxCell id="_7YUsY37ZqRuh6ZpaFpD-65" value="Type" style="ellipse;whiteSpace=wrap;html=1;align=center;" vertex="1" parent="1">
          <mxGeometry x="-310" y="860" width="100" height="40" as="geometry" />
        </mxCell>
        <mxCell id="_7YUsY37ZqRuh6ZpaFpD-66" value="Employee_id" style="ellipse;whiteSpace=wrap;html=1;align=center;fontStyle=4;" vertex="1" parent="1">
          <mxGeometry x="-30" y="140" width="100" height="40" as="geometry" />
        </mxCell>
        <mxCell id="_7YUsY37ZqRuh6ZpaFpD-68" value="Name" style="ellipse;whiteSpace=wrap;html=1;align=center;" vertex="1" parent="1">
          <mxGeometry x="80" y="110" width="100" height="40" as="geometry" />
        </mxCell>
        <mxCell id="_7YUsY37ZqRuh6ZpaFpD-69" value="Address" style="ellipse;shape=doubleEllipse;margin=3;whiteSpace=wrap;html=1;align=center;" vertex="1" parent="1">
          <mxGeometry x="220" y="110" width="100" height="40" as="geometry" />
        </mxCell>
        <mxCell id="_7YUsY37ZqRuh6ZpaFpD-70" value="Street" style="ellipse;whiteSpace=wrap;html=1;" vertex="1" parent="1">
          <mxGeometry x="150" y="30" width="100" height="40" as="geometry" />
        </mxCell>
        <mxCell id="_7YUsY37ZqRuh6ZpaFpD-71" value="House_num" style="ellipse;whiteSpace=wrap;html=1;" vertex="1" parent="1">
          <mxGeometry x="260" y="30" width="100" height="40" as="geometry" />
        </mxCell>
        <mxCell id="_7YUsY37ZqRuh6ZpaFpD-72" value="Post_code" style="ellipse;whiteSpace=wrap;html=1;" vertex="1" parent="1">
          <mxGeometry x="370" y="40" width="100" height="40" as="geometry" />
        </mxCell>
        <mxCell id="_7YUsY37ZqRuh6ZpaFpD-73" value="" style="endArrow=none;html=1;rounded=0;entryX=0.5;entryY=0;entryDx=0;entryDy=0;exitX=0.5;exitY=1;exitDx=0;exitDy=0;" edge="1" parent="1" source="_7YUsY37ZqRuh6ZpaFpD-71" target="_7YUsY37ZqRuh6ZpaFpD-69">
          <mxGeometry relative="1" as="geometry">
            <mxPoint x="310" y="150" as="sourcePoint" />
            <mxPoint x="470" y="150" as="targetPoint" />
          </mxGeometry>
        </mxCell>
        <mxCell id="_7YUsY37ZqRuh6ZpaFpD-74" value="" style="endArrow=none;html=1;rounded=0;exitX=0.5;exitY=0;exitDx=0;exitDy=0;entryX=0.5;entryY=1;entryDx=0;entryDy=0;" edge="1" parent="1" source="_7YUsY37ZqRuh6ZpaFpD-69" target="_7YUsY37ZqRuh6ZpaFpD-70">
          <mxGeometry relative="1" as="geometry">
            <mxPoint x="310" y="150" as="sourcePoint" />
            <mxPoint x="470" y="150" as="targetPoint" />
          </mxGeometry>
        </mxCell>
        <mxCell id="_7YUsY37ZqRuh6ZpaFpD-75" value="" style="endArrow=none;html=1;rounded=0;exitX=0.5;exitY=0;exitDx=0;exitDy=0;entryX=0.5;entryY=1;entryDx=0;entryDy=0;" edge="1" parent="1" source="_7YUsY37ZqRuh6ZpaFpD-69" target="_7YUsY37ZqRuh6ZpaFpD-72">
          <mxGeometry relative="1" as="geometry">
            <mxPoint x="310" y="150" as="sourcePoint" />
            <mxPoint x="470" y="150" as="targetPoint" />
          </mxGeometry>
        </mxCell>
        <mxCell id="_7YUsY37ZqRuh6ZpaFpD-76" value="Birthdate" style="ellipse;whiteSpace=wrap;html=1;" vertex="1" parent="1">
          <mxGeometry x="320" y="170" width="100" height="40" as="geometry" />
        </mxCell>
        <mxCell id="_7YUsY37ZqRuh6ZpaFpD-77" value="Phonenumber" style="ellipse;whiteSpace=wrap;html=1;" vertex="1" parent="1">
          <mxGeometry x="320" y="360" width="100" height="40" as="geometry" />
        </mxCell>
        <mxCell id="_7YUsY37ZqRuh6ZpaFpD-78" value="Job_title" style="ellipse;whiteSpace=wrap;html=1;" vertex="1" parent="1">
          <mxGeometry x="450" y="185" width="100" height="40" as="geometry" />
        </mxCell>
        <mxCell id="_7YUsY37ZqRuh6ZpaFpD-79" value="Sex" style="ellipse;whiteSpace=wrap;html=1;" vertex="1" parent="1">
          <mxGeometry x="360" y="230" width="100" height="40" as="geometry" />
        </mxCell>
        <mxCell id="_7YUsY37ZqRuh6ZpaFpD-80" value="Age" style="ellipse;whiteSpace=wrap;html=1;align=center;dashed=1;" vertex="1" parent="1">
          <mxGeometry x="330" y="300" width="100" height="40" as="geometry" />
        </mxCell>
        <mxCell id="_7YUsY37ZqRuh6ZpaFpD-83" value="SALARY" style="rounded=0;whiteSpace=wrap;html=1;" vertex="1" parent="1">
          <mxGeometry x="170" y="530" width="120" height="60" as="geometry" />
        </mxCell>
        <mxCell id="_7YUsY37ZqRuh6ZpaFpD-84" value="Instructor_level" style="ellipse;whiteSpace=wrap;html=1;" vertex="1" parent="1">
          <mxGeometry x="310" y="420" width="100" height="40" as="geometry" />
        </mxCell>
        <mxCell id="_7YUsY37ZqRuh6ZpaFpD-87" value="Salary_group" style="ellipse;whiteSpace=wrap;html=1;align=center;fontStyle=4;" vertex="1" parent="1">
          <mxGeometry x="100" y="630" width="100" height="40" as="geometry" />
        </mxCell>
        <mxCell id="_7YUsY37ZqRuh6ZpaFpD-88" value="Salary" style="ellipse;whiteSpace=wrap;html=1;" vertex="1" parent="1">
          <mxGeometry x="230" y="630" width="100" height="40" as="geometry" />
        </mxCell>
        <mxCell id="_7YUsY37ZqRuh6ZpaFpD-89" value="Course_id" style="ellipse;whiteSpace=wrap;html=1;align=center;fontStyle=4;" vertex="1" parent="1">
          <mxGeometry x="-690" y="185" width="100" height="40" as="geometry" />
        </mxCell>
        <mxCell id="_7YUsY37ZqRuh6ZpaFpD-90" value="Course_level" style="ellipse;whiteSpace=wrap;html=1;" vertex="1" parent="1">
          <mxGeometry x="-650" y="250" width="100" height="40" as="geometry" />
        </mxCell>
        <mxCell id="_7YUsY37ZqRuh6ZpaFpD-91" value="Start_date" style="ellipse;whiteSpace=wrap;html=1;" vertex="1" parent="1">
          <mxGeometry x="-540" y="90" width="100" height="40" as="geometry" />
        </mxCell>
        <mxCell id="_7YUsY37ZqRuh6ZpaFpD-92" value="End_date" style="ellipse;whiteSpace=wrap;html=1;" vertex="1" parent="1">
          <mxGeometry x="-650" y="120" width="100" height="40" as="geometry" />
        </mxCell>
        <mxCell id="_7YUsY37ZqRuh6ZpaFpD-94" value="Accomidation_id" style="ellipse;whiteSpace=wrap;html=1;" vertex="1" parent="1">
          <mxGeometry x="-230" y="-430" width="100" height="40" as="geometry" />
        </mxCell>
        <mxCell id="_7YUsY37ZqRuh6ZpaFpD-96" value="Address" style="ellipse;shape=doubleEllipse;margin=3;whiteSpace=wrap;html=1;align=center;" vertex="1" parent="1">
          <mxGeometry x="110" y="-460" width="100" height="40" as="geometry" />
        </mxCell>
        <mxCell id="_7YUsY37ZqRuh6ZpaFpD-97" value="Street" style="ellipse;whiteSpace=wrap;html=1;" vertex="1" parent="1">
          <mxGeometry x="40" y="-540" width="100" height="40" as="geometry" />
        </mxCell>
        <mxCell id="_7YUsY37ZqRuh6ZpaFpD-98" value="House_num" style="ellipse;whiteSpace=wrap;html=1;" vertex="1" parent="1">
          <mxGeometry x="150" y="-540" width="100" height="40" as="geometry" />
        </mxCell>
        <mxCell id="_7YUsY37ZqRuh6ZpaFpD-99" value="Post_code" style="ellipse;whiteSpace=wrap;html=1;" vertex="1" parent="1">
          <mxGeometry x="260" y="-530" width="100" height="40" as="geometry" />
        </mxCell>
        <mxCell id="_7YUsY37ZqRuh6ZpaFpD-100" value="" style="endArrow=none;html=1;rounded=0;entryX=0.5;entryY=0;entryDx=0;entryDy=0;exitX=0.5;exitY=1;exitDx=0;exitDy=0;" edge="1" parent="1" source="_7YUsY37ZqRuh6ZpaFpD-98" target="_7YUsY37ZqRuh6ZpaFpD-96">
          <mxGeometry relative="1" as="geometry">
            <mxPoint x="200" y="-420" as="sourcePoint" />
            <mxPoint x="360" y="-420" as="targetPoint" />
          </mxGeometry>
        </mxCell>
        <mxCell id="_7YUsY37ZqRuh6ZpaFpD-101" value="" style="endArrow=none;html=1;rounded=0;exitX=0.5;exitY=0;exitDx=0;exitDy=0;entryX=0.5;entryY=1;entryDx=0;entryDy=0;" edge="1" parent="1" source="_7YUsY37ZqRuh6ZpaFpD-96" target="_7YUsY37ZqRuh6ZpaFpD-97">
          <mxGeometry relative="1" as="geometry">
            <mxPoint x="200" y="-420" as="sourcePoint" />
            <mxPoint x="360" y="-420" as="targetPoint" />
          </mxGeometry>
        </mxCell>
        <mxCell id="_7YUsY37ZqRuh6ZpaFpD-102" value="" style="endArrow=none;html=1;rounded=0;exitX=0.5;exitY=0;exitDx=0;exitDy=0;entryX=0.5;entryY=1;entryDx=0;entryDy=0;" edge="1" parent="1" source="_7YUsY37ZqRuh6ZpaFpD-96" target="_7YUsY37ZqRuh6ZpaFpD-99">
          <mxGeometry relative="1" as="geometry">
            <mxPoint x="200" y="-420" as="sourcePoint" />
            <mxPoint x="360" y="-420" as="targetPoint" />
          </mxGeometry>
        </mxCell>
        <mxCell id="_7YUsY37ZqRuh6ZpaFpD-103" value="Type" style="ellipse;whiteSpace=wrap;html=1;" vertex="1" parent="1">
          <mxGeometry x="-20" y="-490" width="100" height="40" as="geometry" />
        </mxCell>
        <mxCell id="_7YUsY37ZqRuh6ZpaFpD-104" value="Name" style="ellipse;whiteSpace=wrap;html=1;" vertex="1" parent="1">
          <mxGeometry x="-150" y="-480" width="100" height="40" as="geometry" />
        </mxCell>
        <mxCell id="_7YUsY37ZqRuh6ZpaFpD-105" value="BORROWS" style="shape=rhombus;perimeter=rhombusPerimeter;whiteSpace=wrap;html=1;align=center;" vertex="1" parent="1">
          <mxGeometry x="-270" y="-100" width="120" height="60" as="geometry" />
        </mxCell>
        <mxCell id="_7YUsY37ZqRuh6ZpaFpD-115" value="IS IN" style="shape=rhombus;perimeter=rhombusPerimeter;whiteSpace=wrap;html=1;align=center;" vertex="1" parent="1">
          <mxGeometry x="-400" y="30" width="120" height="60" as="geometry" />
        </mxCell>
        <mxCell id="_7YUsY37ZqRuh6ZpaFpD-142" value="" style="endArrow=none;html=1;rounded=0;exitX=1;exitY=0.5;exitDx=0;exitDy=0;entryX=0;entryY=0.5;entryDx=0;entryDy=0;" edge="1" parent="1" source="_7YUsY37ZqRuh6ZpaFpD-2" target="_7YUsY37ZqRuh6ZpaFpD-105">
          <mxGeometry relative="1" as="geometry">
            <mxPoint x="-220" y="230" as="sourcePoint" />
            <mxPoint x="-60" y="230" as="targetPoint" />
          </mxGeometry>
        </mxCell>
        <mxCell id="_7YUsY37ZqRuh6ZpaFpD-143" value="N" style="resizable=0;html=1;whiteSpace=wrap;align=right;verticalAlign=bottom;" connectable="0" vertex="1" parent="_7YUsY37ZqRuh6ZpaFpD-142">
          <mxGeometry x="1" relative="1" as="geometry" />
        </mxCell>
        <mxCell id="_7YUsY37ZqRuh6ZpaFpD-144" value="" style="shape=link;html=1;rounded=0;exitX=0.5;exitY=1;exitDx=0;exitDy=0;entryX=0.5;entryY=0;entryDx=0;entryDy=0;" edge="1" parent="1" source="_7YUsY37ZqRuh6ZpaFpD-2" target="_7YUsY37ZqRuh6ZpaFpD-115">
          <mxGeometry relative="1" as="geometry">
            <mxPoint x="-220" y="230" as="sourcePoint" />
            <mxPoint x="-60" y="230" as="targetPoint" />
          </mxGeometry>
        </mxCell>
        <mxCell id="_7YUsY37ZqRuh6ZpaFpD-145" value="N" style="resizable=0;html=1;whiteSpace=wrap;align=right;verticalAlign=bottom;" connectable="0" vertex="1" parent="_7YUsY37ZqRuh6ZpaFpD-144">
          <mxGeometry x="1" relative="1" as="geometry" />
        </mxCell>
        <mxCell id="_7YUsY37ZqRuh6ZpaFpD-146" value="" style="endArrow=none;html=1;rounded=0;exitX=0.5;exitY=0;exitDx=0;exitDy=0;entryX=0.5;entryY=1;entryDx=0;entryDy=0;" edge="1" parent="1" source="_7YUsY37ZqRuh6ZpaFpD-4" target="_7YUsY37ZqRuh6ZpaFpD-115">
          <mxGeometry relative="1" as="geometry">
            <mxPoint x="-220" y="230" as="sourcePoint" />
            <mxPoint x="-60" y="230" as="targetPoint" />
          </mxGeometry>
        </mxCell>
        <mxCell id="_7YUsY37ZqRuh6ZpaFpD-147" value="1" style="resizable=0;html=1;whiteSpace=wrap;align=right;verticalAlign=bottom;" connectable="0" vertex="1" parent="_7YUsY37ZqRuh6ZpaFpD-146">
          <mxGeometry x="1" relative="1" as="geometry" />
        </mxCell>
        <mxCell id="_7YUsY37ZqRuh6ZpaFpD-148" value="SUPERVISES" style="shape=rhombus;perimeter=rhombusPerimeter;whiteSpace=wrap;html=1;align=center;" vertex="1" parent="1">
          <mxGeometry x="-230" y="210" width="120" height="60" as="geometry" />
        </mxCell>
        <mxCell id="_7YUsY37ZqRuh6ZpaFpD-153" value="" style="endArrow=none;html=1;rounded=0;entryX=1;entryY=0.5;entryDx=0;entryDy=0;exitX=0;exitY=0.5;exitDx=0;exitDy=0;" edge="1" parent="1" source="_7YUsY37ZqRuh6ZpaFpD-7" target="_7YUsY37ZqRuh6ZpaFpD-148">
          <mxGeometry relative="1" as="geometry">
            <mxPoint x="-230" y="220" as="sourcePoint" />
            <mxPoint x="-70" y="220" as="targetPoint" />
          </mxGeometry>
        </mxCell>
        <mxCell id="_7YUsY37ZqRuh6ZpaFpD-154" value="N" style="resizable=0;html=1;whiteSpace=wrap;align=right;verticalAlign=bottom;" connectable="0" vertex="1" parent="_7YUsY37ZqRuh6ZpaFpD-153">
          <mxGeometry x="1" relative="1" as="geometry" />
        </mxCell>
        <mxCell id="_7YUsY37ZqRuh6ZpaFpD-157" value="" style="shape=link;html=1;rounded=0;exitX=1;exitY=0.5;exitDx=0;exitDy=0;entryX=0;entryY=0.5;entryDx=0;entryDy=0;" edge="1" parent="1" source="_7YUsY37ZqRuh6ZpaFpD-4" target="_7YUsY37ZqRuh6ZpaFpD-148">
          <mxGeometry relative="1" as="geometry">
            <mxPoint x="-230" y="220" as="sourcePoint" />
            <mxPoint x="-70" y="220" as="targetPoint" />
          </mxGeometry>
        </mxCell>
        <mxCell id="_7YUsY37ZqRuh6ZpaFpD-158" value="1" style="resizable=0;html=1;whiteSpace=wrap;align=right;verticalAlign=bottom;" connectable="0" vertex="1" parent="_7YUsY37ZqRuh6ZpaFpD-157">
          <mxGeometry x="1" relative="1" as="geometry" />
        </mxCell>
        <mxCell id="_7YUsY37ZqRuh6ZpaFpD-159" value="Model" style="ellipse;whiteSpace=wrap;html=1;align=center;" vertex="1" parent="1">
          <mxGeometry x="200" y="-210" width="100" height="40" as="geometry" />
        </mxCell>
        <mxCell id="_7YUsY37ZqRuh6ZpaFpD-160" value="" style="endArrow=none;html=1;rounded=0;entryX=1;entryY=0.5;entryDx=0;entryDy=0;exitX=0;exitY=0.5;exitDx=0;exitDy=0;" edge="1" parent="1" source="_7YUsY37ZqRuh6ZpaFpD-3" target="_7YUsY37ZqRuh6ZpaFpD-105">
          <mxGeometry relative="1" as="geometry">
            <mxPoint x="-230" y="-100" as="sourcePoint" />
            <mxPoint x="-70" y="-100" as="targetPoint" />
          </mxGeometry>
        </mxCell>
        <mxCell id="_7YUsY37ZqRuh6ZpaFpD-161" value="1" style="resizable=0;html=1;whiteSpace=wrap;align=right;verticalAlign=bottom;" connectable="0" vertex="1" parent="_7YUsY37ZqRuh6ZpaFpD-160">
          <mxGeometry x="1" relative="1" as="geometry" />
        </mxCell>
        <mxCell id="_7YUsY37ZqRuh6ZpaFpD-162" value="HAS" style="shape=rhombus;perimeter=rhombusPerimeter;whiteSpace=wrap;html=1;align=center;" vertex="1" parent="1">
          <mxGeometry x="120" y="390" width="120" height="60" as="geometry" />
        </mxCell>
        <mxCell id="_7YUsY37ZqRuh6ZpaFpD-167" value="" style="endArrow=none;html=1;rounded=0;entryX=0.5;entryY=0;entryDx=0;entryDy=0;exitX=0.5;exitY=1;exitDx=0;exitDy=0;" edge="1" parent="1" source="_7YUsY37ZqRuh6ZpaFpD-7" target="_7YUsY37ZqRuh6ZpaFpD-162">
          <mxGeometry relative="1" as="geometry">
            <mxPoint y="430" as="sourcePoint" />
            <mxPoint x="160" y="430" as="targetPoint" />
          </mxGeometry>
        </mxCell>
        <mxCell id="_7YUsY37ZqRuh6ZpaFpD-168" value="1" style="resizable=0;html=1;whiteSpace=wrap;align=right;verticalAlign=bottom;" connectable="0" vertex="1" parent="_7YUsY37ZqRuh6ZpaFpD-167">
          <mxGeometry x="1" relative="1" as="geometry" />
        </mxCell>
        <mxCell id="_7YUsY37ZqRuh6ZpaFpD-169" value="" style="endArrow=none;html=1;rounded=0;entryX=0.5;entryY=1;entryDx=0;entryDy=0;exitX=0.5;exitY=0;exitDx=0;exitDy=0;" edge="1" parent="1" source="_7YUsY37ZqRuh6ZpaFpD-83" target="_7YUsY37ZqRuh6ZpaFpD-162">
          <mxGeometry relative="1" as="geometry">
            <mxPoint y="430" as="sourcePoint" />
            <mxPoint x="160" y="430" as="targetPoint" />
          </mxGeometry>
        </mxCell>
        <mxCell id="_7YUsY37ZqRuh6ZpaFpD-170" value="N" style="resizable=0;html=1;whiteSpace=wrap;align=right;verticalAlign=bottom;" connectable="0" vertex="1" parent="_7YUsY37ZqRuh6ZpaFpD-169">
          <mxGeometry x="1" relative="1" as="geometry" />
        </mxCell>
        <mxCell id="_7YUsY37ZqRuh6ZpaFpD-171" value="STAYS AT" style="shape=rhombus;perimeter=rhombusPerimeter;whiteSpace=wrap;html=1;align=center;" vertex="1" parent="1">
          <mxGeometry x="-60" y="-270" width="120" height="60" as="geometry" />
        </mxCell>
        <mxCell id="_7YUsY37ZqRuh6ZpaFpD-178" value="" style="endArrow=none;html=1;rounded=0;exitX=1;exitY=0.5;exitDx=0;exitDy=0;entryX=0.5;entryY=1;entryDx=0;entryDy=0;" edge="1" parent="1" source="_7YUsY37ZqRuh6ZpaFpD-2" target="_7YUsY37ZqRuh6ZpaFpD-171">
          <mxGeometry relative="1" as="geometry">
            <mxPoint x="-10" y="-170" as="sourcePoint" />
            <mxPoint x="100" y="-240" as="targetPoint" />
          </mxGeometry>
        </mxCell>
        <mxCell id="_7YUsY37ZqRuh6ZpaFpD-179" value="N" style="resizable=0;html=1;whiteSpace=wrap;align=right;verticalAlign=bottom;" connectable="0" vertex="1" parent="_7YUsY37ZqRuh6ZpaFpD-178">
          <mxGeometry x="1" relative="1" as="geometry" />
        </mxCell>
        <mxCell id="_7YUsY37ZqRuh6ZpaFpD-180" value="" style="endArrow=none;html=1;rounded=0;entryX=0.5;entryY=0;entryDx=0;entryDy=0;exitX=0.5;exitY=1;exitDx=0;exitDy=0;" edge="1" parent="1" source="_7YUsY37ZqRuh6ZpaFpD-8" target="_7YUsY37ZqRuh6ZpaFpD-171">
          <mxGeometry relative="1" as="geometry">
            <mxPoint x="-10" y="-170" as="sourcePoint" />
            <mxPoint x="150" y="-170" as="targetPoint" />
          </mxGeometry>
        </mxCell>
        <mxCell id="_7YUsY37ZqRuh6ZpaFpD-181" value="1" style="resizable=0;html=1;whiteSpace=wrap;align=right;verticalAlign=bottom;" connectable="0" vertex="1" parent="_7YUsY37ZqRuh6ZpaFpD-180">
          <mxGeometry x="1" relative="1" as="geometry" />
        </mxCell>
        <mxCell id="_7YUsY37ZqRuh6ZpaFpD-182" value="IS IN" style="shape=rhombus;perimeter=rhombusPerimeter;whiteSpace=wrap;html=1;align=center;" vertex="1" parent="1">
          <mxGeometry x="-290" y="390" width="120" height="60" as="geometry" />
        </mxCell>
        <mxCell id="_7YUsY37ZqRuh6ZpaFpD-187" value="" style="endArrow=none;html=1;rounded=0;exitX=1;exitY=0.5;exitDx=0;exitDy=0;entryX=0.5;entryY=1;entryDx=0;entryDy=0;" edge="1" parent="1" source="_7YUsY37ZqRuh6ZpaFpD-5" target="_7YUsY37ZqRuh6ZpaFpD-182">
          <mxGeometry relative="1" as="geometry">
            <mxPoint x="-250" y="640" as="sourcePoint" />
            <mxPoint x="-90" y="640" as="targetPoint" />
          </mxGeometry>
        </mxCell>
        <mxCell id="_7YUsY37ZqRuh6ZpaFpD-188" value="1" style="resizable=0;html=1;whiteSpace=wrap;align=right;verticalAlign=bottom;" connectable="0" vertex="1" parent="_7YUsY37ZqRuh6ZpaFpD-187">
          <mxGeometry x="1" relative="1" as="geometry" />
        </mxCell>
        <mxCell id="_7YUsY37ZqRuh6ZpaFpD-192" value="DRIVES IN" style="shape=rhombus;perimeter=rhombusPerimeter;whiteSpace=wrap;html=1;align=center;" vertex="1" parent="1">
          <mxGeometry x="-350" y="570" width="120" height="60" as="geometry" />
        </mxCell>
        <mxCell id="_7YUsY37ZqRuh6ZpaFpD-196" value="" style="endArrow=none;html=1;rounded=0;exitX=0.5;exitY=1;exitDx=0;exitDy=0;entryX=0.5;entryY=0;entryDx=0;entryDy=0;" edge="1" parent="1" source="_7YUsY37ZqRuh6ZpaFpD-5" target="_7YUsY37ZqRuh6ZpaFpD-192">
          <mxGeometry relative="1" as="geometry">
            <mxPoint x="-250" y="640" as="sourcePoint" />
            <mxPoint x="-90" y="640" as="targetPoint" />
          </mxGeometry>
        </mxCell>
        <mxCell id="_7YUsY37ZqRuh6ZpaFpD-197" value="1" style="resizable=0;html=1;whiteSpace=wrap;align=right;verticalAlign=bottom;" connectable="0" vertex="1" parent="_7YUsY37ZqRuh6ZpaFpD-196">
          <mxGeometry x="1" relative="1" as="geometry" />
        </mxCell>
        <mxCell id="_7YUsY37ZqRuh6ZpaFpD-198" value="" style="shape=link;html=1;rounded=0;exitX=0.5;exitY=0;exitDx=0;exitDy=0;entryX=0.5;entryY=1;entryDx=0;entryDy=0;" edge="1" parent="1" source="_7YUsY37ZqRuh6ZpaFpD-202" target="_7YUsY37ZqRuh6ZpaFpD-192">
          <mxGeometry relative="1" as="geometry">
            <mxPoint x="-240" y="730" as="sourcePoint" />
            <mxPoint x="-120" y="680" as="targetPoint" />
          </mxGeometry>
        </mxCell>
        <mxCell id="_7YUsY37ZqRuh6ZpaFpD-199" value="N" style="resizable=0;html=1;whiteSpace=wrap;align=right;verticalAlign=bottom;" connectable="0" vertex="1" parent="_7YUsY37ZqRuh6ZpaFpD-198">
          <mxGeometry x="1" relative="1" as="geometry" />
        </mxCell>
        <mxCell id="_7YUsY37ZqRuh6ZpaFpD-200" value="" style="shape=link;html=1;rounded=0;exitX=0.5;exitY=1;exitDx=0;exitDy=0;entryX=0.5;entryY=0;entryDx=0;entryDy=0;" edge="1" parent="1" source="_7YUsY37ZqRuh6ZpaFpD-4" target="_7YUsY37ZqRuh6ZpaFpD-182">
          <mxGeometry relative="1" as="geometry">
            <mxPoint x="-250" y="340" as="sourcePoint" />
            <mxPoint x="-90" y="340" as="targetPoint" />
          </mxGeometry>
        </mxCell>
        <mxCell id="_7YUsY37ZqRuh6ZpaFpD-201" value="N" style="resizable=0;html=1;whiteSpace=wrap;align=right;verticalAlign=bottom;" connectable="0" vertex="1" parent="_7YUsY37ZqRuh6ZpaFpD-200">
          <mxGeometry x="1" relative="1" as="geometry" />
        </mxCell>
        <mxCell id="_7YUsY37ZqRuh6ZpaFpD-202" value="SHUTTLE" style="shape=ext;margin=3;double=1;whiteSpace=wrap;html=1;align=center;" vertex="1" parent="1">
          <mxGeometry x="-290" y="740" width="130" height="50" as="geometry" />
        </mxCell>
        <mxCell id="_7YUsY37ZqRuh6ZpaFpD-203" value="&lt;span style=&quot;border-bottom: 1px dotted&quot;&gt;Shuttle_name&lt;/span&gt;" style="ellipse;whiteSpace=wrap;html=1;align=center;" vertex="1" parent="1">
          <mxGeometry x="-410" y="820" width="100" height="40" as="geometry" />
        </mxCell>
      </root>
    </mxGraphModel>
  </diagram>
</mxfile>
